<?xml version="1.0" encoding="UTF-8"?>
<!-- Generated by Pixelmator Pro 3.6.17 -->
<svg width="384" height="384" viewBox="0 0 384 384" xmlns="http://www.w3.org/2000/svg">
    <g id="standard">
        <path id="Path" fill="#690077" stroke="#690077" stroke-width="4" opacity="0.239026" visibility="hidden" d="M 245.200775 284.142395 C 254.218155 278.942108 264.605469 278.503204 273.596283 281.961212 C 281.097443 284.847321 289.675964 282.453308 294.769867 276.242188 C 303.85376 265.1633 311.182068 252.594788 316.329163 238.935699 C 319.268494 231.128601 316.48877 222.550095 310.118073 217.150299 C 302.949341 211.112106 298.400757 202.121292 298.400757 192 C 298.400757 181.878708 302.949341 172.887894 310.104767 166.823105 C 316.475464 161.423309 319.268494 152.858093 316.315857 145.037704 C 311.168762 131.391907 303.85376 118.81012 294.756561 107.731201 C 289.662689 101.520111 281.084167 99.126099 273.582977 102.012238 C 264.605469 105.496796 254.218155 105.057892 245.200775 99.857605 C 236.156769 94.630707 230.570755 85.812775 229.107773 76.250092 C 227.910767 68.429688 221.712967 62.178711 213.905869 60.848694 C 206.777069 59.638397 199.462067 59 192.000763 59 C 184.539474 59 177.224472 59.638397 170.095657 60.848694 C 162.288574 62.178711 156.104065 68.429688 154.893768 76.250092 C 153.430771 85.812775 147.844772 94.630707 138.800766 99.857605 C 129.783371 105.057892 119.396065 105.496796 110.405266 102.025513 C 102.904068 99.139404 94.325569 101.533417 89.231667 107.744507 C 80.147766 118.823425 72.832771 131.391907 67.685669 145.050995 C 64.73307 152.858093 67.52607 161.436584 73.896767 166.823105 C 81.05217 172.887894 85.600769 181.878708 85.600769 192 C 85.600769 202.121292 81.05217 211.112106 73.896767 217.176895 C 67.52607 222.576691 64.73307 231.141907 67.685669 238.962296 C 72.832771 252.608093 80.147766 265.18988 89.244972 276.268799 C 94.338867 282.479889 102.917366 284.873901 110.418571 281.987823 C 119.396065 278.503204 129.783371 278.942108 138.800766 284.142395 C 147.844772 289.369263 153.430771 298.187195 154.893768 307.749878 C 156.090759 315.570313 162.288574 321.821289 170.095657 323.151306 C 177.224472 324.361603 184.539474 325 192.000763 325 C 199.462067 325 206.777069 324.361603 213.905869 323.151306 C 221.712967 321.834595 227.910767 315.583618 229.107773 307.749878 C 230.570755 298.187195 236.156769 289.369263 245.200775 284.142395 Z"/>
        <path id="path1" fill="#690077" stroke="none" visibility="hidden" d="M 192 138 C 162.178513 138 138 162.178513 138 192 C 138 221.821487 162.178513 246 192 246 C 221.821487 246 246 221.821487 246 192 C 246 162.178513 221.821487 138 192 138 Z"/>
    </g>
    <g id="smaller">
        <path id="path2" fill="#690077" stroke="#690077" stroke-width="3.488722" opacity="0.239026" d="M 238.40126 272.364777 C 246.266052 267.829193 255.325653 267.446411 263.167267 270.462402 C 269.709656 272.979614 277.19165 270.891602 281.63446 265.474396 C 289.557251 255.8116 295.948853 244.849594 300.438049 232.936401 C 303.001648 226.127197 300.57724 218.645203 295.020874 213.935593 C 288.768433 208.669205 284.801239 200.827591 284.801239 192 C 284.801239 183.172409 288.768433 175.330795 295.009247 170.041199 C 300.565643 165.331604 303.001648 157.861206 300.426453 151.040405 C 295.937225 139.138809 289.557251 128.165207 281.622864 118.50238 C 277.180054 113.085205 269.698029 110.997192 263.15567 113.514435 C 255.325653 116.553589 246.266052 116.170807 238.40126 111.635223 C 230.513245 107.076416 225.641251 99.38559 224.36525 91.045197 C 223.321243 84.224396 217.915649 78.7724 211.106445 77.612396 C 204.888855 76.556793 198.50885 76 192.001251 76 C 185.493652 76 179.113647 76.556793 172.896042 77.612396 C 166.086853 78.7724 160.692841 84.224396 159.637253 91.045197 C 158.361252 99.38559 153.489258 107.076416 145.601257 111.635223 C 137.73645 116.170807 128.676849 116.553589 120.835251 113.526001 C 114.292854 111.008789 106.810852 113.096802 102.36805 118.514008 C 94.445251 128.176819 88.065254 139.138809 83.57605 151.052002 C 81.000854 157.861206 83.436852 165.343185 88.993248 170.041199 C 95.234055 175.330795 99.201248 183.172409 99.201248 192 C 99.201248 200.827591 95.234055 208.669205 88.993248 213.958801 C 83.436852 218.668396 81.000854 226.138794 83.57605 232.959595 C 88.065254 244.861191 94.445251 255.834793 102.379654 265.49762 C 106.822449 270.914795 114.304451 273.002808 120.846855 270.485626 C 128.676849 267.446411 137.73645 267.829193 145.601257 272.364777 C 153.489258 276.923584 158.361252 284.61438 159.637253 292.954803 C 160.681244 299.775604 166.086853 305.2276 172.896042 306.387604 C 179.113647 307.443207 185.493652 308 192.001251 308 C 198.50885 308 204.888855 307.443207 211.106445 306.387604 C 217.915649 305.239197 223.321243 299.787201 224.36525 292.954803 C 225.641251 284.61438 230.513245 276.923584 238.40126 272.364777 Z"/>
        <path id="path3" fill="#690077" stroke="none" d="M 192.00058 144.902252 C 165.99086 144.902252 144.902832 165.99028 144.902832 192 C 144.902832 218.00972 165.99086 239.097748 192.00058 239.097748 C 218.0103 239.097748 239.098328 218.00972 239.098328 192 C 239.098328 165.99028 218.0103 144.902252 192.00058 144.902252 Z"/>
    </g>
</svg>
